<svg xmlns="http://www.w3.org/2000/svg" width="32" height="32" viewBox="0 0 32 32">
    <path fill="#FFF" fill-rule="evenodd" d="M24.114 5.661a1.88 1.88 0 1 0 0 3.758 1.88 1.88 0 0 0 0-3.758m-8.358 15.456a5.22 5.22 0 1 1 0-10.438 5.22 5.22 0 0 1 0 10.438m0-13.26a8.04 8.04 0 1 0 0 16.081 8.04 8.04 0 0 0 0-16.08m0-7.617c-4.252 0-4.785.017-6.455.094-1.667.076-2.805.34-3.801.727a7.68 7.68 0 0 0-2.774 1.806A7.687 7.687 0 0 0 .92 5.641C.533 6.637.27 7.776.193 9.442c-.076 1.67-.095 2.203-.095 6.456 0 4.252.019 4.786.095 6.456.076 1.666.34 2.804.727 3.8.4 1.03.936 1.903 1.806 2.774A7.674 7.674 0 0 0 5.5 30.733c.996.388 2.134.652 3.8.728 1.67.076 2.204.095 6.456.095 4.253 0 4.785-.019 6.456-.095 1.666-.076 2.804-.34 3.8-.728a7.674 7.674 0 0 0 2.774-1.805 7.67 7.67 0 0 0 1.806-2.774c.387-.996.651-2.134.728-3.8.076-1.67.094-2.204.094-6.456 0-4.253-.018-4.785-.094-6.456-.077-1.666-.341-2.805-.728-3.8a7.68 7.68 0 0 0-1.806-2.774 7.68 7.68 0 0 0-2.773-1.806c-.997-.387-2.135-.651-3.801-.727C20.542.258 20.009.24 15.756.24m0 2.82c4.181 0 4.676.016 6.327.092 1.526.07 2.355.324 2.908.539.73.284 1.252.623 1.8 1.171s.887 1.07 1.17 1.8c.216.552.47 1.381.54 2.908.076 1.65.092 2.146.092 6.327 0 4.18-.016 4.676-.092 6.327-.07 1.527-.324 2.356-.54 2.908a4.841 4.841 0 0 1-1.17 1.8 4.85 4.85 0 0 1-1.8 1.17c-.553.215-1.382.47-2.908.54-1.65.075-2.146.091-6.327.091s-4.676-.016-6.327-.09c-1.527-.07-2.356-.326-2.908-.54a4.855 4.855 0 0 1-1.8-1.171 4.852 4.852 0 0 1-1.171-1.8c-.214-.552-.47-1.381-.539-2.908-.075-1.651-.091-2.147-.091-6.327 0-4.181.016-4.676.091-6.327.07-1.527.325-2.356.539-2.907a4.854 4.854 0 0 1 1.171-1.8 4.862 4.862 0 0 1 1.8-1.172c.552-.215 1.381-.47 2.908-.54 1.651-.075 2.146-.09 6.327-.09"/>
</svg>
