<svg xmlns="http://www.w3.org/2000/svg" width="32" height="27" viewBox="0 0 32 27">
    <g fill="none" fill-rule="nonzero">
        <path fill="#000" d="M10.677 9.54a1.085 1.085 0 0 1-1.014-1.144l.08-1.302a1.085 1.085 0 0 1 1.145-1.013l1.302.08c.287.018.552.147.744.364.191.217.287.496.269.785l-.08 1.297a.785.785 0 0 1-.03.167L13.049 9l-.857.634-1.514-.094z"/>
        <path fill="#FFF" d="M10.824 5.425a1.74 1.74 0 0 0-1.733 1.629l-.08 1.3-.001.002v.002a1.74 1.74 0 0 0 1.627 1.835l1.276.079.476.03.383-.284.463-.343.403-.298.092-.452c.018-.07.038-.163.045-.277l.08-1.298c.03-.464-.124-.911-.432-1.26a1.724 1.724 0 0 0-1.195-.582l-1.297-.08h-.004a1.782 1.782 0 0 0-.103-.003m.972 2.836l.047-.773-.773-.048-.048.773.774.048m-.972-1.529l.026.001 1.299.08a.425.425 0 0 1 .401.455l-.08 1.299c-.001.02-.009.037-.013.057l-.463.343-1.277-.08a.43.43 0 0 1-.402-.453l.08-1.3a.429.429 0 0 1 .43-.402M16.185 11.73c-5.44 0-9.866 4.425-9.866 9.866 0 1.87.524 3.62 1.431 5.113h1.576a8.513 8.513 0 0 1-1.699-5.113c0-4.72 3.84-8.559 8.558-8.559 2.242 0 4.389.939 6.045 2.643 1.598 1.642 2.514 3.798 2.514 5.916 0 1.45-.24 3.419-1.28 5.113h1.492c.72-1.45 1.095-3.184 1.095-5.113 0-2.455-1.05-4.944-2.883-6.828-1.905-1.96-4.385-3.039-6.983-3.039"/>
        <path fill="#FFF" d="M14.325 24.27a.884.884 0 1 1-1.768 0 .884.884 0 0 1 1.768 0M19.814 24.27a.884.884 0 1 1-1.769 0 .884.884 0 0 1 1.769 0"/>
        <path fill="#000" d="M6.134 23.919l4.91-5.206-1.182 3.704c3.832-2.79 7.855-2.348 10.688-1.516 3.007.883 5.112-1.773 3.051-4.606-.979-1.346-2.322-2.464-3.848-3.142-4.002-1.778-8.025-.741-10.74 2-2.874 2.905-2.879 6.126-2.879 8.766"/>
        <path fill="#FFF" d="M15.724 12.928c-.57 0-1.136.056-1.692.17-1.696.35-3.27 1.22-4.554 2.515-2.13 2.153-2.574 4.464-2.666 6.634l5.728-6.075-1.517 4.754c2.85-1.49 6.108-1.71 9.711-.653 1.147.337 2.186.082 2.713-.665.54-.768.4-1.863-.374-2.928-.927-1.274-2.2-2.314-3.585-2.93a9.268 9.268 0 0 0-3.764-.822zM5.48 25.565V23.92c0-2.73 0-6.126 3.069-9.226 1.465-1.48 3.27-2.474 5.22-2.875 2.052-.422 4.213-.167 6.25.737 1.592.708 3.052 1.9 4.111 3.355 1.103 1.517 1.251 3.222.386 4.45-.846 1.202-2.475 1.66-4.15 1.168-3.863-1.134-7.268-.657-10.12 1.418L8.632 24.12l.914-2.867-4.066 4.312z"/>
        <path fill="#000" d="M18.537 11.893c-.582 1.516-2.27 2.363-3.833 1.923-1.762-.496-2.692-1.912-2.469-3.708.222-1.786 1.43-3.352 2.82-5.282-1.142 2.432-.172 2.66.135 2.648.304-.012.747.04 1.377.249a3.187 3.187 0 0 1 1.97 4.17"/>
        <path fill="#FFF" d="M14.027 7.433c-.604.946-1.027 1.825-1.143 2.756-.183 1.473.563 2.594 1.997 2.997a2.548 2.548 0 0 0 3.046-1.527 2.515 2.515 0 0 0-.074-1.994 2.51 2.51 0 0 0-1.492-1.321c-.582-.193-.944-.224-1.145-.216a1.262 1.262 0 0 1-1.19-.695m1.52 7.153c-.338 0-.681-.046-1.02-.141-1.015-.286-1.826-.851-2.346-1.634-.518-.781-.723-1.743-.594-2.784.229-1.836 1.36-3.4 2.671-5.213l.268-.37 1.122.66c-.554 1.18-.49 1.616-.461 1.715.445-.013.98.082 1.587.283a3.807 3.807 0 0 1 2.262 2.003c.453.957.493 2.03.112 3.022-.576 1.503-2.048 2.459-3.6 2.459"/>
        <path fill="#000" d="M16.885 17.684a.756.756 0 0 1-.588-.279l-.44-.539a.757.757 0 0 1 .076-1.037.745.745 0 0 1-.25-.199l-.1-.122a.758.758 0 0 1 .108-1.066l.063-.051-.645-.791a.824.824 0 0 1 1.275-1.041l2.748 3.382a.824.824 0 0 1-1.207 1.114l-.56.458a.761.761 0 0 1-.48.171"/>
        <path fill="#FFF" d="M16.798 12.22a1.353 1.353 0 0 0-1.908-.193 1.36 1.36 0 0 0-.195 1.911l.358.44a1.294 1.294 0 0 0 .116 1.468l.067.082c-.158.418-.096.907.206 1.277l.44.538a1.297 1.297 0 0 0 1.82.184l.264-.215a1.36 1.36 0 0 0 1.387-.2 1.36 1.36 0 0 0 .193-1.91l-2.745-3.379-.003-.003zm-1.05.572c.083 0 .165.036.222.106l2.747 3.38a.288.288 0 0 1-.446.365l-.273-.337-.972.793a.222.222 0 0 1-.315-.032l-.44-.539a.221.221 0 0 1 .032-.312l.976-.796-.4-.492-.482.394a.213.213 0 0 1-.299-.03l-.1-.123a.222.222 0 0 1 .03-.312l.478-.39-.982-1.205a.288.288 0 0 1 .223-.47z"/>
    </g>
</svg>
