<svg xmlns="http://www.w3.org/2000/svg" width="31" height="31" viewBox="0 0 31 31">
    <path fill="#FFF" fill-rule="evenodd" d="M26.416 26.417H21.82v-7.195c0-1.717-.03-3.923-2.389-3.923-2.392 0-2.758 1.87-2.758 3.799v7.319h-4.595V11.622h4.41v2.022h.062c.613-1.164 2.113-2.39 4.35-2.39 4.656 0 5.516 3.064 5.516 7.047v8.116zM6.896 9.6a2.666 2.666 0 1 1 0-5.333 2.666 2.666 0 0 1 0 5.333zm-2.3 16.817h4.598V11.622H4.596v14.795zM28.706 0H2.287C1.026 0 0 1 0 2.234v26.53C0 29.997 1.026 31 2.288 31h26.417C29.97 31 31 29.998 31 28.763V2.234C31 1 29.97 0 28.705 0z"/>
</svg>
