<svg xmlns="http://www.w3.org/2000/svg" width="31" height="31" viewBox="0 0 31 31">
    <path fill="#FFF" fill-rule="evenodd" d="M7.398 19.572a1.06 1.06 0 0 1-.282.914l-2.187 2.653v.35h6.203v-.35l-2.188-2.653a1.099 1.099 0 0 1-.301-.914v-7.96l5.444 11.878h.632l4.677-11.878v9.467c0 .252 0 .3-.166.466l-1.682 1.633v.35h8.167v-.35l-1.624-1.594a.486.486 0 0 1-.184-.466V9.405a.486.486 0 0 1 .184-.466l1.663-1.595v-.349H20L15.895 17.23 11.23 6.995H5.19v.35l1.944 2.343a.805.805 0 0 1 .263.68v9.204zM0 31h31V0H0v31z"/>
</svg>
