<svg xmlns="http://www.w3.org/2000/svg" width="32" height="32" viewBox="0 0 32 32">
    <path fill="#FFF" fill-rule="evenodd" d="M15.712 9.17l5.667 12.466c1.717 3.777-.333 6.38-3.625 9.495-1.37 1.294-1.779 1.115-1.545-.35.42-2.636.452-4.933-.921-7.952L9.621 10.364c-1.717-3.777.334-6.381 3.625-9.495 1.369-1.294 1.778-1.115 1.546.35-.42 2.636-.453 4.933.92 7.952zm-10.549.995l4.36 9.738c1.32 2.95-.257 4.986-2.79 7.418-1.052 1.01-1.367.871-1.188-.274.322-2.058.348-3.853-.708-6.211l-4.36-9.74c-1.32-2.95.257-4.985 2.79-7.417 1.052-1.011 1.367-.871 1.188.274-.323 2.059-.348 3.853.708 6.212zm25.743 9.764c1.316 2.929-.255 4.948-2.778 7.362-1.05 1.004-1.363.865-1.185-.271.322-2.044.347-3.824-.705-6.165l-4.343-9.666c-1.316-2.928.255-4.948 2.778-7.361 1.049-1.004 1.363-.865 1.185.271-.322 2.043-.347 3.824.705 6.165l4.343 9.665z"/>
</svg>
