<svg xmlns="http://www.w3.org/2000/svg" width="32" height="27" viewBox="0 0 32 27">
    <path fill="#FFF" fill-rule="evenodd" d="M31.937.58c-.115-.342-.251-.435-.466-.518-.467-.181-1.259.092-1.259.092S2.174 10.46.572 11.603c-.345.246-.46.388-.517.556-.277.813.586 1.171.586 1.171l7.226 2.408s.27.04.366-.022c1.644-1.062 16.54-10.683 17.4-11.006.135-.042.235.006.208.101-.344 1.235-13.282 12.997-13.282 12.997s-.125.147-.102.265l-.67 7.193s-.282 2.246 1.914 0a61.595 61.595 0 0 1 3.8-3.554c2.486 1.756 5.157 3.693 6.312 4.709.58.51 1.064.593 1.463.577 1.096-.042 1.402-1.272 1.402-1.272s5.109-21.033 5.28-23.85c.017-.277.04-.453.042-.643.003-.263-.021-.528-.063-.652"/>
</svg>
