<svg xmlns="http://www.w3.org/2000/svg" width="30" height="24" viewBox="0 0 30 24">
    <path fill="#FFF" fill-rule="evenodd" d="M9.435 24c11.32 0 17.512-9.233 17.512-17.239 0-.262-.005-.523-.017-.783A12.417 12.417 0 0 0 30 2.841c-1.103.482-2.29.807-3.535.954A6.098 6.098 0 0 0 29.172.443a12.44 12.44 0 0 1-3.908 1.47A6.195 6.195 0 0 0 20.77 0c-3.4 0-6.156 2.713-6.156 6.058 0 .476.054.938.16 1.381A17.567 17.567 0 0 1 2.088 1.11a5.967 5.967 0 0 0-.834 3.046 6.027 6.027 0 0 0 2.74 5.042 6.182 6.182 0 0 1-2.788-.757c-.002.025-.002.05-.002.077 0 2.935 2.122 5.384 4.938 5.94a6.273 6.273 0 0 1-2.78.104c.784 2.407 3.056 4.159 5.75 4.208a12.475 12.475 0 0 1-7.644 2.594c-.496 0-.986-.029-1.468-.085A17.625 17.625 0 0 0 9.435 24"/>
</svg>
